<?xml version="1.0" standalone="no"?>
<!DOCTYPE svg PUBLIC "-//W3C//DTD SVG 20010904//EN"
 "http://www.w3.org/TR/2001/REC-SVG-20010904/DTD/svg10.dtd">
<svg version="1.0" xmlns="http://www.w3.org/2000/svg"
 width="214.000000pt" height="206.000000pt" viewBox="0 0 214.000000 206.000000"
 preserveAspectRatio="xMidYMid meet">

<g transform="translate(0.000000,206.000000) scale(0.100000,-0.100000)"
fill="#000000" stroke="none">
<path d="M562 1468 l3 -513 33 -95 c46 -132 94 -214 171 -291 78 -77 189 -137
304 -165 75 -17 77 -17 154 5 228 66 378 184 468 366 62 125 74 197 80 471 3
134 7 354 10 489 l5 245 -615 0 -616 0 3 -512z m179 369 c8 -19 9 -31 2 -38
-7 -7 -20 6 -41 42 -35 62 -32 99 4 53 13 -16 29 -41 35 -57z m919 62 c0 -23
-50 -109 -62 -109 -16 0 -7 41 20 84 30 50 42 57 42 25z m-817 -38 c24 -42 4
-49 -22 -7 -24 38 -28 65 -8 48 6 -6 20 -24 30 -41z m117 2 c0 -7 -4 -13 -9
-13 -10 0 -21 25 -21 48 1 15 3 14 15 -2 8 -11 15 -26 15 -33z m53 25 c7 -25
3 -33 -12 -23 -13 8 -15 45 -2 45 5 0 11 -10 14 -22z m331 0 c-8 -28 -12 -33
-20 -25 -9 8 6 47 17 47 6 0 7 -10 3 -22z m66 9 c0 -15 -29 -57 -30 -42 0 6 3
20 6 33 7 24 24 31 24 9z m130 2 c0 -17 -40 -79 -51 -79 -15 0 -10 18 14 55
22 35 37 44 37 24z m-760 -38 c11 -22 16 -42 11 -46 -10 -5 -51 54 -51 74 0
24 20 9 40 -28z m114 17 c18 -25 20 -38 8 -38 -4 0 -16 14 -25 30 -21 35 -6
41 17 8z m186 2 c0 -11 -4 -20 -10 -20 -5 0 -10 9 -10 20 0 11 5 20 10 20 6 0
10 -9 10 -20z m72 -10 c1 -9 -1 -17 -7 -18 -5 -1 -11 10 -13 25 -4 29 13 23
20 -7z m128 10 c0 -11 -6 -20 -14 -20 -9 0 -12 7 -9 20 3 11 9 20 14 20 5 0 9
-9 9 -20z m190 15 c0 -12 -24 -55 -32 -55 -12 0 -10 17 4 40 12 18 28 27 28
15z m130 -4 c0 -16 -41 -81 -51 -81 -15 0 -10 20 12 56 20 33 39 44 39 25z
m-926 -55 c29 -49 32 -66 14 -66 -16 0 -71 97 -63 110 9 15 20 5 49 -44z m536
42 c0 -7 -4 -19 -9 -27 -11 -17 -23 1 -15 23 7 19 24 21 24 4z m503 -23 c-33
-55 -55 -85 -63 -85 -18 0 -11 25 21 75 23 36 33 45 39 35 5 -8 6 -19 3 -25z
m-1083 -57 c26 -19 41 -48 24 -48 -10 0 -74 52 -74 61 0 15 19 10 50 -13z
m1120 10 c0 -7 -15 -23 -33 -36 -42 -29 -51 -8 -11 25 33 26 44 29 44 11z
m-635 -8 c26 -10 27 -13 21 -63 -4 -28 -6 -107 -5 -174 l1 -123 -44 0 c-23 0
-83 -7 -132 -16 -144 -25 -136 -34 -136 166 0 155 2 170 18 170 9 1 53 12 97
25 87 26 139 30 180 15z m289 -15 c47 -14 93 -25 101 -25 8 0 15 -7 15 -16 0
-8 5 -12 10 -9 6 4 11 -55 12 -167 l2 -173 6 165 6 165 4 -175 4 -175 3 163
c5 218 22 214 25 -5 l2 -168 6 165 6 165 4 -175 4 -175 6 165 5 165 8 -135 c5
-74 7 -157 5 -185 l-3 -50 -192 -3 -193 -2 9 22 c5 13 13 23 20 22 6 -1 71 -3
144 -4 l132 -4 -100 -6 -100 -6 120 -2 c103 -1 117 1 102 12 -10 8 -57 17
-105 21 -94 7 -231 37 -196 43 12 2 49 -4 82 -12 33 -9 84 -15 113 -14 46 1
48 2 14 5 -53 4 -188 34 -182 39 2 3 46 -2 98 -11 118 -19 116 -19 122 5 6 23
3 24 -21 9 -14 -9 -42 -8 -114 5 -52 9 -114 16 -138 16 l-42 0 2 123 c1 67 -3
143 -8 170 -9 48 -5 58 28 70 33 12 92 6 174 -18z m-219 -28 c14 -73 11 -129
-8 -141 -15 -9 -21 -7 -33 9 -9 11 -12 29 -9 40 4 11 9 34 11 50 13 84 28 101
39 42z m-555 -22 c31 -16 40 -35 18 -35 -17 0 -76 49 -60 50 7 0 26 -7 42 -15z
m1120 5 c0 -8 -51 -40 -65 -40 -15 0 -2 21 23 34 32 18 42 19 42 6z m-940
-175 c0 -94 4 -166 10 -170 5 -3 53 1 106 10 53 8 99 14 101 11 6 -5 -129 -35
-182 -39 -33 -3 -31 -4 14 -5 30 -1 83 5 118 14 34 8 71 14 80 12 30 -6 -107
-36 -199 -43 -48 -4 -95 -13 -105 -21 -15 -11 6 -13 142 -12 l160 2 -140 6
-140 6 128 4 c70 2 134 4 142 4 8 1 14 -2 13 -5 -2 -3 3 -13 11 -22 12 -16 -1
-17 -177 -17 -125 0 -193 4 -197 11 -4 6 -3 90 1 187 l9 177 5 -165 6 -165 4
175 4 175 6 -165 6 -165 2 168 c2 197 20 229 25 45 l3 -123 4 135 4 135 6
-165 6 -165 2 173 c1 112 6 171 12 167 6 -4 10 -72 10 -170z m-179 100 c16 -9
27 -20 24 -25 -7 -12 -65 16 -65 30 0 13 6 13 41 -5z m1119 7 c0 -8 -52 -42
-64 -42 -16 0 -3 21 22 34 31 17 42 19 42 8z m-1096 -83 c5 -5 7 -11 5 -14 -8
-7 -69 18 -69 28 0 11 51 0 64 -14z m1096 13 c0 -12 -69 -32 -75 -22 -3 5 7
13 22 18 35 13 53 14 53 4z m-560 -16 c0 -3 -4 -8 -10 -11 -5 -3 -10 -1 -10 4
0 6 5 11 10 11 6 0 10 -2 10 -4z m-563 -38 c30 -11 45 -28 24 -28 -19 0 -71
23 -71 31 0 12 7 11 47 -3z m1133 3 c0 -8 -52 -31 -71 -31 -20 0 -7 19 19 28
35 13 52 14 52 3z m-600 -21 c0 -5 -2 -10 -4 -10 -3 0 -8 5 -11 10 -3 6 -1 10
4 10 6 0 11 -4 11 -10z m30 6 c0 -3 -4 -8 -10 -11 -5 -3 -10 -1 -10 4 0 6 5
11 10 11 6 0 10 -2 10 -4z m-30 -46 c0 -5 -2 -10 -4 -10 -3 0 -8 5 -11 10 -3
6 -1 10 4 10 6 0 11 -4 11 -10z m-505 -9 c-7 -12 -64 -25 -72 -17 -7 7 35 24
60 25 10 1 16 -3 12 -8z m1081 -1 c15 -6 24 -13 21 -16 -9 -9 -77 6 -77 16 0
13 22 13 56 0z m-1076 -48 c0 -13 -69 -32 -76 -21 -6 10 30 27 59 28 9 1 17
-3 17 -7z m530 -7 c0 -9 6 -12 15 -9 8 4 15 1 15 -5 0 -12 -11 -14 -34 -5 -17
7 -22 34 -6 34 6 0 10 -7 10 -15z m545 5 c38 -15 22 -31 -18 -18 -17 6 -36 15
-41 19 -14 12 26 11 59 -1z m-585 -10 c0 -5 -2 -10 -4 -10 -3 0 -8 5 -11 10
-3 6 -1 10 4 10 6 0 11 -4 11 -10z m-25 -20 c3 -5 -1 -10 -9 -10 -9 0 -16 5
-16 10 0 6 4 10 9 10 6 0 13 -4 16 -10z m-465 -18 c0 -7 -63 -42 -75 -42 -15
0 -1 22 23 34 30 17 52 20 52 8z m570 -2 c0 -5 -4 -10 -10 -10 -5 0 -10 5 -10
10 0 6 5 10 10 10 6 0 10 -4 10 -10z m494 -7 c19 -9 33 -20 30 -24 -6 -10 -74
21 -74 33 0 11 4 10 44 -9z m-654 -3 c0 -5 -15 -10 -32 -9 -28 0 -30 2 -13 9
28 12 45 12 45 0z m40 0 c0 -5 -4 -10 -10 -10 -5 0 -10 5 -10 10 0 6 5 10 10
10 6 0 10 -4 10 -10z m60 -1 c0 6 5 11 11 11 6 0 9 -10 7 -22 -4 -33 -42 -31
-46 2 -3 21 -2 22 12 11 11 -9 16 -10 16 -2z m143 -8 c4 -4 -6 -6 -23 -3 -16
2 -30 9 -30 14 0 10 39 1 53 -11z m-78 -11 c3 -5 -1 -10 -10 -10 -9 0 -13 5
-10 10 3 6 8 10 10 10 2 0 7 -4 10 -10z m-120 -10 c3 -5 -1 -10 -10 -10 -9 0
-13 5 -10 10 3 6 8 10 10 10 2 0 7 -4 10 -10z m-465 -23 c0 -11 -49 -47 -64
-47 -16 0 -2 20 27 39 38 25 37 24 37 8z m570 -8 c0 -6 -4 -7 -10 -4 -5 3 -10
11 -10 16 0 6 5 7 10 4 6 -3 10 -11 10 -16z m538 -28 c6 -18 -17 -12 -48 11
-16 11 -27 25 -24 30 6 10 67 -25 72 -41z m-608 29 c8 -5 11 -13 6 -17 -5 -4
-11 -3 -13 4 -2 7 -11 9 -19 6 -8 -3 -14 0 -14 6 0 13 20 14 40 1z m40 -16 c0
-8 -4 -12 -10 -9 -5 3 -10 10 -10 16 0 5 5 9 10 9 6 0 10 -7 10 -16z m-90 -22
c0 -12 -14 -21 -42 -30 -24 -7 -60 -24 -80 -38 -21 -13 -40 -24 -43 -24 -13 0
-3 27 15 43 11 9 20 15 20 12 0 -3 17 3 39 14 21 11 41 17 45 14 3 -4 6 -1 6
5 0 6 7 9 15 6 8 -4 15 -1 15 5 0 6 2 11 5 11 3 0 5 -8 5 -18z m151 4 c5 3 9
0 9 -6 0 -6 4 -9 9 -5 19 11 121 -58 121 -82 0 -18 -7 -16 -44 12 -18 13 -53
34 -79 45 -26 12 -47 24 -47 29 0 13 14 23 18 12 2 -6 8 -9 13 -5z m-628 -60
c-25 -32 -43 -45 -43 -31 0 9 63 76 67 71 3 -3 -8 -21 -24 -40z m1127 -29 c-1
-14 -59 53 -59 68 0 6 13 -5 29 -23 17 -18 30 -38 30 -45z m-1082 -12 c-45
-65 -68 -88 -68 -70 0 10 103 145 111 145 5 0 -14 -34 -43 -75z m112 69 c0
-13 -123 -204 -131 -204 -15 0 -11 10 52 111 52 85 79 116 79 93z m60 -8 c0
-19 -130 -246 -141 -246 -18 0 -8 24 59 141 64 113 82 136 82 105z m60 2 c1
-23 -145 -298 -157 -298 -19 0 -16 15 18 83 94 188 138 256 139 215z m634
-133 c42 -80 76 -149 76 -155 0 -5 -6 -10 -12 -10 -15 0 -171 294 -161 303 14
15 24 1 97 -138z m55 12 c62 -110 69 -127 52 -127 -13 0 -151 242 -144 253 8
14 25 -9 92 -126z m49 32 c66 -106 67 -109 53 -109 -9 0 -114 159 -126 193 -4
9 -3 17 2 17 6 0 37 -45 71 -101z m43 39 c57 -80 62 -88 51 -88 -4 0 -32 34
-61 75 -28 41 -48 75 -43 75 5 0 29 -28 53 -62z m-403 -4 c80 -39 102 -79 111
-201 4 -54 5 -102 1 -108 -4 -5 -10 -31 -13 -56 -32 -243 -227 -338 -370 -180
-38 42 -77 146 -77 205 0 18 -3 36 -7 40 -10 10 -4 152 8 197 11 44 73 104
118 114 17 3 33 10 35 14 11 17 142 0 194 -25z m-374 -230 c4 -15 5 -29 1 -32
-3 -3 -5 2 -5 11 0 10 -4 17 -10 17 -5 0 -10 7 -10 15 0 25 17 17 24 -11z
m526 -10 c0 -8 -4 -12 -10 -9 -5 3 -10 13 -10 21 0 8 5 12 10 9 6 -3 10 -13
10 -21z m-419 -330 c25 -27 112 -74 139 -74 39 0 92 24 134 62 35 30 50 38 58
30 29 -29 -113 -112 -191 -112 -71 1 -191 67 -191 106 0 22 24 16 51 -12z m24
-74 c79 -41 150 -41 231 0 68 34 64 33 64 19 0 -15 -99 -58 -152 -65 -56 -8
-141 16 -183 50 -40 33 -29 32 40 -4z m115 -55 c58 0 86 5 121 23 50 24 59 26
59 13 0 -16 -103 -53 -161 -58 -61 -6 -114 7 -166 41 -52 33 -38 39 20 9 43
-23 64 -28 127 -28z m-115 -14 c67 -32 160 -33 233 -1 73 32 78 17 6 -17 -84
-40 -178 -39 -251 2 -29 15 -53 32 -53 37 0 6 3 8 8 6 4 -2 29 -15 57 -27z"/>
<path d="M924 1725 c-10 -8 -14 -15 -8 -15 5 0 19 7 30 15 10 8 14 15 8 15 -5
0 -19 -7 -30 -15z"/>
<path d="M988 1733 c7 -3 16 -2 19 1 4 3 -2 6 -13 5 -11 0 -14 -3 -6 -6z"/>
<path d="M1038 1733 c6 -2 18 -2 25 0 6 3 1 5 -13 5 -14 0 -19 -2 -12 -5z"/>
<path d="M1000 1710 c0 -5 17 -10 38 -9 30 0 33 2 17 9 -28 12 -55 12 -55 0z"/>
<path d="M910 1689 c0 -5 5 -7 10 -4 6 3 10 8 10 11 0 2 -4 4 -10 4 -5 0 -10
-5 -10 -11z"/>
<path d="M1060 1680 c0 -5 5 -10 11 -10 5 0 7 5 4 10 -3 6 -8 10 -11 10 -2 0
-4 -4 -4 -10z"/>
<path d="M930 1670 c-13 -8 -12 -10 3 -10 9 0 17 5 17 10 0 12 -1 12 -20 0z"/>
<path d="M1028 1673 c7 -3 16 -2 19 1 4 3 -2 6 -13 5 -11 0 -14 -3 -6 -6z"/>
<path d="M870 1660 c0 -5 7 -10 15 -10 8 0 15 5 15 10 0 6 -7 10 -15 10 -8 0
-15 -4 -15 -10z"/>
<path d="M960 1640 c0 -5 7 -7 15 -4 8 4 15 8 15 10 0 2 -7 4 -15 4 -8 0 -15
-4 -15 -10z"/>
<path d="M1033 1643 c9 -2 23 -2 30 0 6 3 -1 5 -18 5 -16 0 -22 -2 -12 -5z"/>
<path d="M905 1630 c-8 -13 5 -13 25 0 13 8 13 10 -2 10 -9 0 -20 -4 -23 -10z"/>
<path d="M988 1613 c7 -3 16 -2 19 1 4 3 -2 6 -13 5 -11 0 -14 -3 -6 -6z"/>
<path d="M1033 1613 c9 -2 23 -2 30 0 6 3 -1 5 -18 5 -16 0 -22 -2 -12 -5z"/>
<path d="M900 1600 c-13 -8 -13 -10 2 -10 9 0 20 5 23 10 8 13 -5 13 -25 0z"/>
<path d="M970 1583 c1 -18 18 -35 24 -24 4 6 2 11 -4 11 -6 0 -8 5 -5 10 3 6
1 10 -4 10 -6 0 -11 -3 -11 -7z"/>
<path d="M920 1565 c0 -9 9 -15 23 -14 12 0 16 3 9 6 -6 2 -10 9 -6 14 3 5 -2
9 -10 9 -9 0 -16 -7 -16 -15z"/>
<path d="M1058 1563 c7 -3 16 -2 19 1 4 3 -2 6 -13 5 -11 0 -14 -3 -6 -6z"/>
<path d="M878 1543 c7 -3 16 -2 19 1 4 3 -2 6 -13 5 -11 0 -14 -3 -6 -6z"/>
<path d="M883 1523 c9 -2 23 -2 30 0 6 3 -1 5 -18 5 -16 0 -22 -2 -12 -5z"/>
<path d="M928 1483 c7 -3 16 -2 19 1 4 3 -2 6 -13 5 -11 0 -14 -3 -6 -6z"/>
<path d="M968 1483 c7 -3 16 -2 19 1 4 3 -2 6 -13 5 -11 0 -14 -3 -6 -6z"/>
<path d="M878 1473 c7 -3 16 -2 19 1 4 3 -2 6 -13 5 -11 0 -14 -3 -6 -6z"/>
<path d="M998 1463 c7 -3 16 -2 19 1 4 3 -2 6 -13 5 -11 0 -14 -3 -6 -6z"/>
<path d="M1048 1463 c7 -3 16 -2 19 1 4 3 -2 6 -13 5 -11 0 -14 -3 -6 -6z"/>
<path d="M890 1450 c0 -5 5 -10 10 -10 6 0 10 5 10 10 0 6 -4 10 -10 10 -5 0
-10 -4 -10 -10z"/>
<path d="M948 1453 c7 -3 16 -2 19 1 4 3 -2 6 -13 5 -11 0 -14 -3 -6 -6z"/>
<path d="M1278 1733 c6 -2 18 -2 25 0 6 3 1 5 -13 5 -14 0 -19 -2 -12 -5z"/>
<path d="M1380 1730 c0 -9 39 -25 46 -18 2 3 -7 10 -21 16 -14 6 -25 7 -25 2z"/>
<path d="M1270 1716 c0 -2 16 -6 35 -8 19 -2 35 0 35 4 0 4 -16 8 -35 8 -19 0
-35 -2 -35 -4z"/>
<path d="M1295 1680 c3 -5 8 -10 11 -10 2 0 4 5 4 10 0 6 -5 10 -11 10 -5 0
-7 -4 -4 -10z"/>
<path d="M1388 1663 c7 -3 16 -2 19 1 4 3 -2 6 -13 5 -11 0 -14 -3 -6 -6z"/>
<path d="M1260 1653 c0 -5 11 -8 25 -8 14 0 25 3 25 8 0 4 -11 7 -25 7 -14 0
-25 -3 -25 -7z"/>
<path d="M1438 1653 c6 -2 18 -2 25 0 6 3 1 5 -13 5 -14 0 -19 -2 -12 -5z"/>
<path d="M1348 1643 c7 -3 16 -2 19 1 4 3 -2 6 -13 5 -11 0 -14 -3 -6 -6z"/>
<path d="M1395 1630 c3 -5 14 -10 23 -10 15 0 15 2 2 10 -20 13 -33 13 -25 0z"/>
<path d="M1260 1619 c0 -5 5 -7 10 -4 6 3 10 8 10 11 0 2 -4 4 -10 4 -5 0 -10
-5 -10 -11z"/>
<path d="M1328 1613 c7 -3 16 -2 19 1 4 3 -2 6 -13 5 -11 0 -14 -3 -6 -6z"/>
<path d="M1400 1599 c0 -5 9 -9 20 -9 11 0 20 2 20 4 0 2 -9 6 -20 9 -11 3
-20 1 -20 -4z"/>
<path d="M1296 1584 c-8 -21 -8 -24 5 -24 5 0 7 5 4 10 -3 6 -1 10 4 10 6 0
11 5 11 10 0 16 -17 12 -24 -6z"/>
<path d="M1377 1566 c-6 -15 1 -26 15 -26 5 0 6 5 3 10 -3 6 -1 10 5 10 6 0 8
5 5 10 -9 14 -22 12 -28 -4z"/>
<path d="M1258 1543 c6 -2 18 -2 25 0 6 3 1 5 -13 5 -14 0 -19 -2 -12 -5z"/>
<path d="M1428 1543 c6 -2 18 -2 25 0 6 3 1 5 -13 5 -14 0 -19 -2 -12 -5z"/>
<path d="M1413 1523 c9 -2 25 -2 35 0 9 3 1 5 -18 5 -19 0 -27 -2 -17 -5z"/>
<path d="M1258 1493 c7 -3 16 -2 19 1 4 3 -2 6 -13 5 -11 0 -14 -3 -6 -6z"/>
<path d="M1298 1493 c7 -3 16 -2 19 1 4 3 -2 6 -13 5 -11 0 -14 -3 -6 -6z"/>
<path d="M1418 1493 c7 -3 16 -2 19 1 4 3 -2 6 -13 5 -11 0 -14 -3 -6 -6z"/>
<path d="M1380 1480 c0 -5 5 -10 10 -10 6 0 10 5 10 10 0 6 -4 10 -10 10 -5 0
-10 -4 -10 -10z"/>
<path d="M1260 1470 c0 -5 5 -10 10 -10 6 0 10 5 10 10 0 6 -4 10 -10 10 -5 0
-10 -4 -10 -10z"/>
<path d="M1430 1470 c0 -5 5 -10 10 -10 6 0 10 5 10 10 0 6 -4 10 -10 10 -5 0
-10 -4 -10 -10z"/>
<path d="M1308 1463 c7 -3 16 -2 19 1 4 3 -2 6 -13 5 -11 0 -14 -3 -6 -6z"/>
<path d="M1358 1453 c7 -3 16 -2 19 1 4 3 -2 6 -13 5 -11 0 -14 -3 -6 -6z"/>
<path d="M1418 1443 c7 -3 16 -2 19 1 4 3 -2 6 -13 5 -11 0 -14 -3 -6 -6z"/>
<path d="M1040 1020 c19 -4 44 -11 55 -14 20 -8 20 -7 1 8 -11 9 -36 15 -55
15 l-36 -1 35 -8z"/>
<path d="M1224 1015 c-23 -18 -22 -18 41 0 48 13 49 14 14 14 -19 1 -44 -6
-55 -14z"/>
<path d="M1015 1001 c-7 -13 27 -31 59 -31 33 0 33 13 1 28 -31 14 -52 15 -60
3z"/>
<path d="M1230 984 c-11 -13 -10 -16 11 -21 l24 -7 -25 -7 c-24 -7 -24 -7 5
-8 17 0 41 7 55 15 l25 15 -29 -6 -30 -6 25 20 24 20 -36 1 c-21 0 -42 -7 -49
-16z"/>
<path d="M1000 972 c0 -22 83 -42 95 -22 4 6 -7 10 -25 10 -17 0 -40 5 -51 10
-10 6 -19 7 -19 2z"/>
<path d="M1096 894 c-11 -28 -6 -44 12 -44 10 0 23 -5 29 -11 13 -13 71 5 85
25 8 12 -9 46 -24 46 -7 0 -7 -4 1 -14 10 -11 6 -17 -18 -29 -25 -13 -31 -13
-35 -1 -3 8 -12 14 -20 14 -10 0 -13 6 -10 15 4 8 2 15 -4 15 -5 0 -13 -7 -16
-16z"/>
<path d="M1079 784 c-24 -25 -22 -38 4 -28 9 3 13 12 10 20 -6 16 -7 15 60 18
27 1 52 -3 57 -9 6 -7 -9 -10 -47 -9 -31 1 -50 -2 -42 -6 18 -10 129 -19 129
-10 0 4 -10 16 -22 27 -34 32 -118 30 -149 -3z"/>
<path d="M1091 741 c-19 -12 25 -41 64 -41 37 0 71 22 61 38 -8 14 -104 16
-125 3z m106 -17 c-3 -3 -22 -6 -42 -6 -20 0 -39 3 -42 6 -4 3 15 6 42 6 27 0
46 -3 42 -6z"/>
<path d="M273 1124 c-62 -28 -73 -37 -73 -57 0 -33 22 -49 54 -41 15 3 26 2
26 -4 0 -6 3 -17 6 -25 4 -10 -5 -16 -29 -21 -79 -15 -85 -70 -23 -221 137
-338 392 -561 719 -630 96 -21 282 -19 392 4 346 71 638 326 744 651 12 35 21
73 21 86 0 27 -52 73 -91 81 -16 3 -29 6 -29 8 0 1 7 16 16 33 14 28 18 31 37
21 17 -10 24 -8 39 11 10 13 18 30 16 39 -3 16 -120 79 -149 80 -9 1 -39 -24
-68 -54 -50 -52 -90 -125 -105 -190 -4 -16 -9 -38 -12 -47 -3 -12 7 -25 36
-44 48 -32 47 -36 -13 -139 -122 -212 -359 -345 -612 -345 -267 0 -537 146
-668 362 -46 77 -55 108 -35 119 8 4 26 17 39 28 23 18 23 21 11 67 -21 79
-57 149 -103 199 -24 25 -50 50 -58 54 -11 6 -41 -3 -88 -25z m67 -23 c0 -17
-75 -61 -104 -61 -19 0 -27 26 -12 39 21 17 100 50 108 45 4 -3 8 -13 8 -23z
m1731 -38 c10 -10 1 -46 -10 -41 -4 2 -28 12 -54 23 -39 17 -47 24 -47 47 l0
27 51 -24 c28 -13 55 -27 60 -32z m-1652 8 c39 -49 78 -134 86 -186 5 -34 3
-42 -15 -53 -16 -10 -21 -10 -25 0 -43 125 -45 127 -88 138 -87 22 -99 48 -37
80 33 17 40 25 35 40 -10 32 11 23 44 -19z m1501 0 c0 -11 12 -23 30 -31 67
-28 56 -63 -25 -83 -49 -12 -49 -13 -74 -77 -13 -36 -25 -66 -26 -68 -2 -2
-13 3 -24 10 -17 10 -20 19 -15 43 13 59 45 131 79 178 37 50 55 59 55 28z
m-1557 -122 c27 -7 37 -15 37 -30 0 -10 11 -29 25 -41 14 -12 25 -28 25 -36 0
-12 -4 -12 -20 3 -20 18 -20 18 0 -40 68 -199 233 -362 451 -448 97 -39 236
-61 339 -53 312 22 552 209 656 511 15 44 32 86 39 93 6 7 33 15 61 18 39 4
56 1 83 -16 31 -20 33 -24 29 -63 -13 -109 -112 -288 -227 -409 -181 -191
-415 -300 -676 -315 -174 -10 -367 38 -519 129 -140 83 -299 262 -384 433 -33
67 -82 198 -82 221 0 47 77 67 163 43z m1493 -137 c-20 -20 -22 -1 -4 31 11
20 12 21 16 3 2 -10 -3 -26 -12 -34z"/>
<path d="M307 852 c-50 -16 -59 -39 -14 -34 19 2 27 -1 27 -12 0 -8 5 -18 11
-22 7 -4 10 3 7 22 -4 35 18 43 26 9 6 -23 26 -36 26 -16 0 16 -22 71 -28 70
-4 0 -28 -8 -55 -17z"/>
<path d="M1921 814 c-7 -19 -11 -37 -9 -39 7 -7 81 -35 93 -35 13 0 35 41 35
65 0 24 -17 17 -24 -10 -4 -14 -13 -25 -22 -25 -12 0 -14 7 -9 30 8 36 -10 41
-19 5 -10 -40 -29 -31 -22 10 9 46 -6 45 -23 -1z"/>
<path d="M317 752 c-34 -38 -8 -92 45 -92 46 0 71 47 48 91 -14 25 -71 26 -93
1z m67 -8 c24 -9 19 -43 -9 -56 -19 -8 -28 -8 -40 2 -19 16 -19 25 1 44 17 18
24 19 48 10z"/>
<path d="M1885 720 c-8 -16 -15 -33 -15 -38 0 -14 92 -54 102 -44 7 7 2 12
-12 17 -28 9 -20 29 15 35 16 3 30 11 33 19 4 11 -2 13 -26 8 -24 -5 -31 -2
-35 13 -8 31 -44 25 -62 -10z m45 -15 c0 -17 -17 -28 -30 -20 -7 4 -7 13 0 26
12 21 30 17 30 -6z"/>
<path d="M383 653 c-50 -29 -56 -48 -13 -38 32 7 38 -2 20 -36 -6 -11 -8 -24
-4 -31 4 -7 12 -1 20 15 9 17 20 24 32 20 33 -8 45 20 25 61 -19 42 -24 42
-80 9z m64 -18 c3 -9 3 -19 -1 -22 -8 -9 -37 18 -30 28 8 14 24 11 31 -6z"/>
<path d="M1850 658 c0 -7 16 -23 35 -36 61 -39 32 -70 -30 -32 -20 12 -37 21
-39 19 -1 -2 -17 -23 -35 -47 -32 -41 -37 -67 -8 -44 10 9 22 4 49 -18 24 -20
39 -26 43 -19 4 6 -9 24 -29 41 -29 24 -34 33 -25 44 9 11 17 10 49 -9 38 -21
39 -21 59 -3 33 30 27 60 -19 90 -45 30 -50 31 -50 14z"/>
<path d="M467 524 l-39 -36 24 -26 c12 -15 24 -29 26 -31 1 -2 5 -1 8 2 4 4
-1 18 -10 31 -15 24 -15 26 19 52 19 14 32 30 29 35 -9 14 -17 11 -57 -27z"/>
<path d="M535 460 l-40 -41 43 -40 c28 -27 48 -39 59 -35 20 8 43 -11 43 -36
0 -39 24 -11 36 43 17 72 6 81 -51 41 l-46 -32 -24 27 c-28 33 -16 56 15 28
26 -24 39 -11 15 15 -10 11 -15 23 -12 27 4 3 16 -2 27 -12 33 -30 37 -7 4 25
l-30 30 -39 -40z m119 -95 c-4 -8 -10 -12 -15 -9 -11 6 -2 24 11 24 5 0 7 -7
4 -15z"/>
<path d="M1700 472 c0 -4 18 -25 40 -47 l40 -39 30 29 c16 15 27 32 24 37 -4
5 -16 0 -28 -11 l-22 -21 -29 30 c-27 28 -55 40 -55 22z"/>
<path d="M1680 452 c0 -4 11 -23 25 -42 23 -31 24 -36 9 -50 -16 -16 -16 -17
-60 45 -9 12 -17 16 -23 10 -7 -7 2 -24 23 -49 27 -33 36 -38 59 -32 40 10 45
47 12 90 -26 34 -45 46 -45 28z"/>
<path d="M1572 374 c-43 -30 -18 -104 36 -104 24 0 52 25 52 46 0 21 -21 17
-27 -6 -7 -26 -39 -26 -53 1 -15 27 -6 49 19 49 25 0 36 16 15 24 -20 8 -16 9
-42 -10z"/>
<path d="M699 326 c-24 -46 -20 -74 6 -40 13 16 16 17 25 4 5 -8 10 -25 10
-37 0 -13 5 -23 10 -23 6 0 10 13 10 29 0 20 6 30 20 34 31 8 25 44 -10 62
-41 21 -45 20 -71 -29z m66 -14 c-21 -5 -40 12 -30 28 5 8 13 6 27 -7 18 -16
19 -18 3 -21z"/>
<path d="M797 283 c-19 -54 -21 -63 -9 -63 5 0 15 12 22 28 l13 27 11 -39 c6
-21 15 -39 21 -40 14 -2 48 95 37 106 -6 6 -15 -4 -22 -24 l-13 -33 -10 43
c-5 23 -15 42 -21 42 -7 0 -20 -21 -29 -47z"/>
<path d="M1413 302 c-39 -15 -41 -18 -36 -46 l6 -31 -31 29 c-42 39 -53 28
-38 -36 12 -57 33 -68 27 -15 l-3 32 29 -27 c33 -32 57 -37 49 -10 -3 9 -8 31
-11 47 -5 28 -4 28 13 -7 25 -51 26 -52 60 -34 46 24 50 56 14 99 -18 20 -24
20 -79 -1z m73 -38 c13 -50 -28 -62 -45 -12 -8 24 -8 33 0 39 19 11 39 -1 45
-27z"/>
<path d="M909 263 c-18 -47 -22 -83 -11 -83 6 0 18 23 27 52 18 61 18 58 5 58
-6 0 -15 -12 -21 -27z"/>
<path d="M942 228 c-5 -29 -9 -55 -7 -57 8 -8 25 12 25 30 0 30 16 22 26 -13
10 -34 28 -47 37 -25 3 8 9 35 12 61 8 53 -8 64 -20 14 l-7 -33 -15 38 c-22
52 -38 46 -51 -15z"/>
<path d="M1061 244 c-25 -32 -26 -43 -6 -71 29 -41 95 -34 95 12 0 20 -5 25
-25 25 -28 0 -34 -16 -7 -23 16 -4 16 -4 0 -12 -30 -12 -50 2 -46 32 3 26 6
28 41 26 40 -3 49 10 18 27 -31 16 -48 12 -70 -16z"/>
<path d="M1221 226 c-6 -24 -13 -51 -17 -60 -4 -10 -1 -16 9 -16 8 0 17 7 21
15 7 20 42 19 50 -2 5 -11 10 -13 17 -6 13 13 -35 113 -55 113 -8 0 -18 -19
-25 -44z m39 -17 c0 -5 -4 -9 -10 -9 -5 0 -10 7 -10 16 0 8 5 12 10 9 6 -3 10
-10 10 -16z"/>
</g>
</svg>
